<svg width="146" height="146" viewBox="0 0 146 146" fill="none" xmlns="http://www.w3.org/2000/svg">
<rect width="146" height="146" rx="73" fill="black"/>
<path d="M95.4973 38.8395L67.5932 38.7324C70.4853 41.4104 71.5458 43.6647 74.5022 51.2914H94.631C104.277 51.0684 124.051 56.0855 125.976 77.9374C126.479 73.8692 125.976 70.8141 125.891 66.8235C122.722 46.3192 102.817 38.8395 95.4973 38.8395Z" fill="url(#paint0_linear_3322_26)" stroke="black" stroke-width="0.676203"/>
<path d="M101.909 106.721C91.6794 107.502 88.7431 100.964 86.1093 94.563H95.0094C118.95 90.3591 118.799 54.6559 95.0094 51.2544C104.656 51.0314 124.032 55.8069 125.957 77.6589C125.263 90.4866 114.752 103.906 101.909 106.721Z" fill="url(#paint1_linear_3322_26)"/>
<path d="M86.1093 94.563C88.7431 100.964 91.6794 107.502 101.909 106.721C114.752 103.906 125.263 90.4866 125.957 77.6589C124.032 55.8069 104.656 51.0314 95.0094 51.2544C118.799 54.6559 118.95 90.3591 95.0094 94.563M86.1093 94.563C86.1093 94.563 91.3873 94.563 95.0094 94.563M86.1093 94.563H95.0094" stroke="black" stroke-width="0.690003"/>
<path d="M101.739 106.76C91.5093 107.541 88.5729 101.003 85.9392 94.6025L81.7174 84.4536H65.1142L70.6307 99.1287C72.0054 101.878 76.0937 107.055 81.7174 107.43C87.2875 107.473 93.9645 107.448 96.6067 107.43C97.7301 107.359 100.329 107.124 101.739 106.76Z" fill="url(#paint2_linear_3322_26)" stroke="black" stroke-width="0.690003"/>
<path fill-rule="evenodd" clip-rule="evenodd" d="M24.9904 86.1021C24.9902 86.1024 24.9905 86.1019 24.9904 86.1021C24.6405 86.6252 24.3021 87.1311 23.9717 87.6129C25.4405 85.2232 26.9048 83.1374 28.381 81.3168C27.0862 82.9688 25.9896 84.6082 24.9904 86.1021ZM28.381 81.3168C30.9716 78.0117 34.3565 74.6549 39.3471 72.3059C35.4771 74.1525 31.8953 76.9829 28.381 81.3168ZM47.002 69.8684C44.3016 70.3807 41.768 71.1508 39.3471 72.3059C41.5596 71.2646 44.0876 70.4213 47.002 69.8684Z" fill="url(#paint3_linear_3322_26)"/>
<path fill-rule="evenodd" clip-rule="evenodd" d="M24.9904 86.1021C24.9902 86.1024 24.9905 86.1019 24.9904 86.1021C24.6405 86.6252 24.3021 87.1311 23.9717 87.6129C25.4405 85.2232 26.9048 83.1374 28.381 81.3168C27.0862 82.9688 25.9896 84.6082 24.9904 86.1021ZM28.381 81.3168C30.9716 78.0117 34.3565 74.6549 39.3471 72.3059C35.4771 74.1525 31.8953 76.9829 28.381 81.3168ZM47.002 69.8684C44.3016 70.3807 41.768 71.1508 39.3471 72.3059C41.5596 71.2646 44.0876 70.4213 47.002 69.8684Z" fill="url(#paint4_linear_3322_26)"/>
<path fill-rule="evenodd" clip-rule="evenodd" d="M24.9904 86.1021C24.9902 86.1024 24.9905 86.1019 24.9904 86.1021C24.6405 86.6252 24.3021 87.1311 23.9717 87.6129C25.4405 85.2232 26.9048 83.1374 28.381 81.3168C27.0862 82.9688 25.9896 84.6082 24.9904 86.1021ZM28.381 81.3168C30.9716 78.0117 34.3565 74.6549 39.3471 72.3059C35.4771 74.1525 31.8953 76.9829 28.381 81.3168ZM47.002 69.8684C44.3016 70.3807 41.768 71.1508 39.3471 72.3059C41.5596 71.2646 44.0876 70.4213 47.002 69.8684Z" fill="url(#paint5_linear_3322_26)"/>
<path fill-rule="evenodd" clip-rule="evenodd" d="M24.9904 86.1021C24.9902 86.1024 24.9905 86.1019 24.9904 86.1021C24.6405 86.6252 24.3021 87.1311 23.9717 87.6129C25.4405 85.2232 26.9048 83.1374 28.381 81.3168C27.0862 82.9688 25.9896 84.6082 24.9904 86.1021ZM28.381 81.3168C30.9716 78.0117 34.3565 74.6549 39.3471 72.3059C35.4771 74.1525 31.8953 76.9829 28.381 81.3168ZM47.002 69.8684C44.3016 70.3807 41.768 71.1508 39.3471 72.3059C41.5596 71.2646 44.0876 70.4213 47.002 69.8684Z" fill="black" fill-opacity="0.2"/>
<path d="M80.8511 81.8821L76.0308 68.8137C72.4034 68.8901 69.0265 68.8804 65.8633 68.8714C58.5977 68.8506 52.4592 68.8331 47.002 69.8684C44.0876 70.4213 41.5596 71.2646 39.3471 72.3059C35.4771 74.1525 31.8953 76.9829 28.381 81.3168C27.0862 82.9688 25.9896 84.6082 24.9904 86.1021C24.6405 86.6252 24.3021 87.1311 23.9717 87.6129L20.0084 97.4141C19.4906 99.8599 19.6334 105.18 24.3466 106.894C30.2381 109.036 33.6123 104.912 34.2014 103.573C34.6727 102.502 37.5399 94.9861 38.9146 91.362C40.2893 88.0413 45.438 81.4964 55.0358 81.882L80.8511 81.8821Z" fill="url(#paint6_linear_3322_26)"/>
<path d="M80.8511 81.8821L76.0308 68.8137C72.4034 68.8901 69.0265 68.8804 65.8633 68.8714C58.5977 68.8506 52.4592 68.8331 47.002 69.8684C44.0876 70.4213 41.5596 71.2646 39.3471 72.3059C35.4771 74.1525 31.8953 76.9829 28.381 81.3168C27.0862 82.9688 25.9896 84.6082 24.9904 86.1021C24.6405 86.6252 24.3021 87.1311 23.9717 87.6129L20.0084 97.4141C19.4906 99.8599 19.6334 105.18 24.3466 106.894C30.2381 109.036 33.6123 104.912 34.2014 103.573C34.6727 102.502 37.5399 94.9861 38.9146 91.362C40.2893 88.0413 45.438 81.4964 55.0358 81.882L80.8511 81.8821Z" fill="url(#paint7_linear_3322_26)"/>
<path d="M80.8511 81.8821L76.0308 68.8137C72.4034 68.8901 69.0265 68.8804 65.8633 68.8714C58.5977 68.8506 52.4592 68.8331 47.002 69.8684C44.0876 70.4213 41.5596 71.2646 39.3471 72.3059C35.4771 74.1525 31.8953 76.9829 28.381 81.3168C27.0862 82.9688 25.9896 84.6082 24.9904 86.1021C24.6405 86.6252 24.3021 87.1311 23.9717 87.6129L20.0084 97.4141C19.4906 99.8599 19.6334 105.18 24.3466 106.894C30.2381 109.036 33.6123 104.912 34.2014 103.573C34.6727 102.502 37.5399 94.9861 38.9146 91.362C40.2893 88.0413 45.438 81.4964 55.0358 81.882L80.8511 81.8821Z" fill="url(#paint8_linear_3322_26)"/>
<path d="M80.8511 81.8821L76.0308 68.8137C72.4034 68.8901 69.0265 68.8804 65.8633 68.8714C58.5977 68.8506 52.4592 68.8331 47.002 69.8684C44.0876 70.4213 41.5596 71.2646 39.3471 72.3059C35.4771 74.1525 31.8953 76.9829 28.381 81.3168C27.0862 82.9688 25.9896 84.6082 24.9904 86.1021C24.6405 86.6252 24.3021 87.1311 23.9717 87.6129L20.0084 97.4141C19.4906 99.8599 19.6334 105.18 24.3466 106.894C30.2381 109.036 33.6123 104.912 34.2014 103.573C34.6727 102.502 37.5399 94.9861 38.9146 91.362C40.2893 88.0413 45.438 81.4964 55.0358 81.882L80.8511 81.8821Z" fill="black" fill-opacity="0.2"/>
<path d="M24.9904 86.1021C24.9902 86.1024 24.9905 86.1019 24.9904 86.1021ZM24.9904 86.1021C24.6405 86.6252 24.3021 87.1311 23.9717 87.6129M24.9904 86.1021C25.9896 84.6082 27.0862 82.9688 28.381 81.3168M23.9717 87.6129C25.4405 85.2232 26.9048 83.1374 28.381 81.3168M23.9717 87.6129L20.0084 97.4141C19.4906 99.8599 19.6334 105.18 24.3466 106.894C30.2381 109.036 33.6123 104.912 34.2014 103.573C34.6727 102.502 37.5399 94.9861 38.9146 91.362C40.2893 88.0413 45.438 81.4964 55.0358 81.882M28.381 81.3168C30.9716 78.0117 34.3565 74.6549 39.3471 72.3059M28.381 81.3168C31.8953 76.9829 35.4771 74.1525 39.3471 72.3059M39.3471 72.3059C41.768 71.1508 44.3016 70.3807 47.002 69.8684M39.3471 72.3059C41.5596 71.2646 44.0876 70.4213 47.002 69.8684M47.002 69.8684C52.4592 68.8331 58.5977 68.8506 65.8633 68.8714C69.0265 68.8804 72.4034 68.8901 76.0308 68.8137L80.8511 81.8821M80.8511 81.8821L55.0358 81.882M80.8511 81.8821C76.2807 81.8821 64.7192 81.882 55.0358 81.882" stroke="black" stroke-width="0.690003"/>
<path d="M48.511 38.8476C45.7688 39.019 42.9409 42.3468 41.8697 43.9892C45.2439 39.8117 49.0466 40.7222 51.1889 44.5248C51.8677 45.7297 53.0507 48.4643 54.3716 51.7017C56.3859 56.638 58.7211 62.7433 60.0797 66.3768H75.8259C73.4515 60.6282 68.2527 48.1026 66.4531 43.9892C62.8112 39.1475 58.9728 38.3299 57.5088 38.5263C55.6521 38.562 51.2532 38.6762 48.511 38.8476Z" fill="url(#paint9_linear_3322_26)"/>
<path d="M48.511 38.8476C45.7688 39.019 42.9409 42.3468 41.8697 43.9892C45.2439 39.8117 49.0466 40.7222 51.1889 44.5248C51.8677 45.7297 53.0507 48.4643 54.3716 51.7017C56.3859 56.638 58.7211 62.7433 60.0797 66.3768H75.8259C73.4515 60.6282 68.2527 48.1026 66.4531 43.9892C62.8112 39.1475 58.9728 38.3299 57.5088 38.5263C55.6521 38.562 51.2532 38.6762 48.511 38.8476Z" fill="url(#paint10_linear_3322_26)"/>
<path d="M48.511 38.8476C45.7688 39.019 42.9409 42.3468 41.8697 43.9892C45.2439 39.8117 49.0466 40.7222 51.1889 44.5248C51.8677 45.7297 53.0507 48.4643 54.3716 51.7017C56.3859 56.638 58.7211 62.7433 60.0797 66.3768H75.8259C73.4515 60.6282 68.2527 48.1026 66.4531 43.9892C62.8112 39.1475 58.9728 38.3299 57.5088 38.5263C55.6521 38.562 51.2532 38.6762 48.511 38.8476Z" fill="url(#paint11_linear_3322_26)"/>
<path d="M48.511 38.8476C45.7688 39.019 42.9409 42.3468 41.8697 43.9892C45.2439 39.8117 49.0466 40.7222 51.1889 44.5248C51.8677 45.7297 53.0507 48.4643 54.3716 51.7017C56.3859 56.638 58.7211 62.7433 60.0797 66.3768H75.8259C73.4515 60.6282 68.2527 48.1026 66.4531 43.9892C62.8112 39.1475 58.9728 38.3299 57.5088 38.5263C55.6521 38.562 51.2532 38.6762 48.511 38.8476Z" stroke="black" stroke-width="0.690003"/>
<path fill-rule="evenodd" clip-rule="evenodd" d="M25.1068 85.8526C25.1066 85.8529 25.107 85.8524 25.1068 85.8526C24.7569 86.3757 24.4185 86.8816 24.0881 87.3634C25.5569 84.9737 27.0212 82.8879 28.4975 81.0673C27.2026 82.7193 26.1061 84.3587 25.1068 85.8526ZM28.4975 81.0673C31.088 77.7622 34.4729 74.4054 39.4636 72.0564C35.5936 73.903 32.0117 76.7334 28.4975 81.0673ZM47.1184 69.6189C44.418 70.1312 41.8844 70.9013 39.4636 72.0564C41.676 71.0151 44.2041 70.1718 47.1184 69.6189Z" fill="url(#paint12_linear_3322_26)"/>
<path fill-rule="evenodd" clip-rule="evenodd" d="M25.1068 85.8526C25.1066 85.8529 25.107 85.8524 25.1068 85.8526C24.7569 86.3757 24.4185 86.8816 24.0881 87.3634C25.5569 84.9737 27.0212 82.8879 28.4975 81.0673C27.2026 82.7193 26.1061 84.3587 25.1068 85.8526ZM28.4975 81.0673C31.088 77.7622 34.4729 74.4054 39.4636 72.0564C35.5936 73.903 32.0117 76.7334 28.4975 81.0673ZM47.1184 69.6189C44.418 70.1312 41.8844 70.9013 39.4636 72.0564C41.676 71.0151 44.2041 70.1718 47.1184 69.6189Z" fill="black" fill-opacity="0.2"/>
<path d="M24.0881 87.3634C25.5569 84.9737 27.0212 82.8879 28.4975 81.0673C31.088 77.7622 34.4729 74.4054 39.4636 72.0564C41.8844 70.9013 44.418 70.1312 47.1184 69.6189L54.2645 51.7468C52.9435 48.5094 51.7606 45.7748 51.0818 44.5699C48.9394 40.7672 45.1367 39.8567 41.7625 44.0343L24.0881 87.3634Z" fill="url(#paint13_linear_3322_26)"/>
<path d="M24.0881 87.3634C25.5569 84.9737 27.0212 82.8879 28.4975 81.0673C31.088 77.7622 34.4729 74.4054 39.4636 72.0564C41.8844 70.9013 44.418 70.1312 47.1184 69.6189L54.2645 51.7468C52.9435 48.5094 51.7606 45.7748 51.0818 44.5699C48.9394 40.7672 45.1367 39.8567 41.7625 44.0343L24.0881 87.3634Z" fill="black" fill-opacity="0.2"/>
<path d="M25.1068 85.8526C25.1066 85.8529 25.107 85.8524 25.1068 85.8526ZM25.1068 85.8526C24.7569 86.3757 24.4185 86.8816 24.0881 87.3634M25.1068 85.8526C26.1061 84.3587 27.2026 82.7193 28.4975 81.0673M24.0881 87.3634C25.5569 84.9737 27.0212 82.8879 28.4975 81.0673M24.0881 87.3634L41.7625 44.0343C45.1367 39.8567 48.9394 40.7672 51.0818 44.5699C51.7606 45.7748 52.9435 48.5094 54.2645 51.7468L47.1184 69.6189M28.4975 81.0673C31.088 77.7622 34.4729 74.4054 39.4636 72.0564M28.4975 81.0673C32.0117 76.7334 35.5936 73.903 39.4636 72.0564M39.4636 72.0564C41.8844 70.9013 44.418 70.1312 47.1184 69.6189M39.4636 72.0564C41.676 71.0151 44.2041 70.1718 47.1184 69.6189" stroke="black" stroke-width="0.690003"/>
<defs>
<linearGradient id="paint0_linear_3322_26" x1="69.5748" y1="38.7324" x2="122.544" y2="65.6189" gradientUnits="userSpaceOnUse">
<stop stop-color="#894E9F"/>
<stop offset="1" stop-color="#FF44C7"/>
</linearGradient>
<linearGradient id="paint1_linear_3322_26" x1="106.033" y1="51.2471" x2="106.033" y2="106.784" gradientUnits="userSpaceOnUse">
<stop stop-color="#7438B2"/>
<stop offset="1" stop-color="#64A2BB"/>
</linearGradient>
<linearGradient id="paint2_linear_3322_26" x1="72.4517" y1="80.8116" x2="91.6258" y2="107.484" gradientUnits="userSpaceOnUse">
<stop stop-color="#8C4EA0"/>
<stop offset="0.9999" stop-color="#FF5CCE"/>
</linearGradient>
<linearGradient id="paint3_linear_3322_26" x1="23.8204" y1="107.457" x2="77.5934" y2="54.2195" gradientUnits="userSpaceOnUse">
<stop stop-color="#4C57C6"/>
<stop offset="0.658654" stop-color="#83D8EE"/>
<stop offset="0.953555" stop-color="white" stop-opacity="0"/>
</linearGradient>
<linearGradient id="paint4_linear_3322_26" x1="123.172" y1="90.5323" x2="99.0704" y2="86.6761" gradientUnits="userSpaceOnUse">
<stop stop-color="#4C57C6"/>
<stop offset="0.658654" stop-color="#83D8EE"/>
<stop offset="0.953555" stop-color="white" stop-opacity="0"/>
</linearGradient>
<linearGradient id="paint5_linear_3322_26" x1="121.833" y1="47.7389" x2="105.765" y2="83.5697" gradientUnits="userSpaceOnUse">
<stop stop-color="#EEA7D3"/>
<stop offset="0.423224" stop-color="#A657C4"/>
<stop offset="1" stop-color="#AB57C4" stop-opacity="0"/>
</linearGradient>
<linearGradient id="paint6_linear_3322_26" x1="23.8204" y1="107.457" x2="77.5934" y2="54.2195" gradientUnits="userSpaceOnUse">
<stop stop-color="#4C57C6"/>
<stop offset="0.658654" stop-color="#83D8EE"/>
<stop offset="0.953555" stop-color="white" stop-opacity="0"/>
</linearGradient>
<linearGradient id="paint7_linear_3322_26" x1="123.172" y1="90.5323" x2="99.0704" y2="86.6761" gradientUnits="userSpaceOnUse">
<stop stop-color="#4C57C6"/>
<stop offset="0.658654" stop-color="#83D8EE"/>
<stop offset="0.953555" stop-color="white" stop-opacity="0"/>
</linearGradient>
<linearGradient id="paint8_linear_3322_26" x1="121.833" y1="47.7389" x2="105.765" y2="83.5697" gradientUnits="userSpaceOnUse">
<stop stop-color="#EEA7D3"/>
<stop offset="0.423224" stop-color="#A657C4"/>
<stop offset="1" stop-color="#AB57C4" stop-opacity="0"/>
</linearGradient>
<linearGradient id="paint9_linear_3322_26" x1="24.044" y1="107.162" x2="77.817" y2="53.9249" gradientUnits="userSpaceOnUse">
<stop stop-color="#4C57C6"/>
<stop offset="0.658654" stop-color="#83D8EE"/>
<stop offset="0.953555" stop-color="white" stop-opacity="0"/>
</linearGradient>
<linearGradient id="paint10_linear_3322_26" x1="123.395" y1="90.2377" x2="99.294" y2="86.3815" gradientUnits="userSpaceOnUse">
<stop stop-color="#4C57C6"/>
<stop offset="0.658654" stop-color="#83D8EE"/>
<stop offset="0.953555" stop-color="white" stop-opacity="0"/>
</linearGradient>
<linearGradient id="paint11_linear_3322_26" x1="62.3827" y1="38.5" x2="75.8259" y2="66.3505" gradientUnits="userSpaceOnUse">
<stop stop-color="#62D8F6"/>
<stop offset="1" stop-color="#A657C4"/>
</linearGradient>
<linearGradient id="paint12_linear_3322_26" x1="29.3369" y1="79.8475" x2="51.9922" y2="46.0519" gradientUnits="userSpaceOnUse">
<stop offset="0.233015" stop-color="#62D8F6"/>
<stop offset="1" stop-color="#4C57C6"/>
</linearGradient>
<linearGradient id="paint13_linear_3322_26" x1="29.3369" y1="79.8475" x2="51.9922" y2="46.0519" gradientUnits="userSpaceOnUse">
<stop offset="0.233015" stop-color="#62D8F6"/>
<stop offset="1" stop-color="#4C57C6"/>
</linearGradient>
</defs>
</svg>